HIERARCHY
ROOT Hips
{
	OFFSET 0.000000 0.000000 0.000000
	CHANNELS 6 Xposition Yposition Zposition Zrotation Yrotation Xrotation 
	JOINT LHipJoint
	{
		OFFSET 0.000000 0.000000 0.000000
		CHANNELS 3 Zrotation Yrotation Xrotation
		JOINT LeftUpLeg
		{
			OFFSET 1.363060 -1.794630 0.839290
			CHANNELS 3 Zrotation Yrotation Xrotation
			JOINT LeftLeg
			{
				OFFSET 2.448110 -6.726130 0.000000
				CHANNELS 3 Zrotation Yrotation Xrotation
				JOINT LeftFoot
				{
					OFFSET 2.562200 -7.039590 0.000000
					CHANNELS 3 Zrotation Yrotation Xrotation
					JOINT LeftToeBase
					{
						OFFSET 0.157640 -0.433110 2.322550
						CHANNELS 3 Zrotation Yrotation Xrotation
						End Site
						{
							OFFSET 0.000000 0.000000 0.000000
						}
					}
				}
			}
		}
	}
	JOINT RHipJoint
	{
		OFFSET 0.000000 0.000000 0.000000
		CHANNELS 3 Zrotation Yrotation Xrotation
		JOINT RightUpLeg
		{
			OFFSET -1.305520 -1.794630 0.839290
			CHANNELS 3 Zrotation Yrotation Xrotation
			JOINT RightLeg
			{
				OFFSET -2.542530 -6.985550 0.000000
				CHANNELS 3 Zrotation Yrotation Xrotation
				JOINT RightFoot
				{
					OFFSET -2.568260 -7.056230 0.000000
					CHANNELS 3 Zrotation Yrotation Xrotation
					JOINT RightToeBase
					{
						OFFSET -0.164730 -0.452590 2.363150
						CHANNELS 3 Zrotation Yrotation Xrotation
						End Site
						{
							OFFSET 0.000000 0.000000 0.000000
						}
					}
				}
			}
		}
	}
}
MOTION
Frames: 13
Frame Time: 0.008333
0.668909 17.126825 2.719068 -10.002646 -75.950691 21.994281 -10.491629 0.408547 2.257566 -8.606669 -8.785637 -22.271761 -1.162705 0.717373 28.934890 2.169381 10.659222 -13.628592 -1.157100 0.000000 -34.190901 9.861906 -0.622633 -0.972490 1.289057 -2.908822 -21.436825 -0.452229 -2.571256 41.096094 -3.601582 -20.535385 7.346529 -6.044199 0.000000 -70.379400
0.683767 17.129690 2.743262 -10.771310 -75.433564 22.630219 -10.538131 0.366027 2.254630 -8.301671 -8.895070 -22.173940 -1.143893 0.720505 28.950701 2.124519 10.410262 -13.639012 -1.142000 0.000001 -34.230900 9.852688 -0.584735 -0.988945 1.566305 -2.660223 -22.574490 -0.533805 -2.723920 43.505546 -3.615403 -20.635817 7.312262 -6.012400 -0.000000 -68.845800
0.699365 17.132588 2.765904 -11.497916 -74.895813 23.213820 -10.583202 0.323918 2.263136 -7.982958 -9.058700 -22.067114 -1.120634 0.724064 28.968990 2.088226 10.209670 -13.656263 -1.131300 0.000000 -34.227200 9.844261 -0.544077 -1.022668 1.866602 -2.495294 -23.729022 -0.610682 -2.874815 45.886039 -3.624291 -20.698528 7.120487 -5.920200 0.000000 -67.384500
0.715774 17.135625 2.787177 -12.192691 -74.337361 23.754576 -10.627551 0.281989 2.283110 -7.647244 -9.279770 -21.948970 -1.092602 0.728288 28.989724 2.060548 10.058692 -13.680285 -1.125200 0.000000 -34.177200 9.835620 -0.501393 -1.074323 2.192102 -2.412006 -24.893104 -0.684079 -3.024160 48.221222 -3.627719 -20.724403 6.800885 -5.777800 -0.000000 -66.073600
0.733087 17.138918 2.807198 -12.856426 -73.760149 24.252107 -10.671060 0.240195 2.314060 -7.295855 -9.559942 -21.815790 -1.059915 0.733124 29.009583 2.041361 9.957716 -13.709165 -1.123500 0.000000 -34.080800 9.826549 -0.456710 -1.143395 2.539331 -2.405871 -26.061775 -0.755264 -3.172000 50.496641 -3.624965 -20.712212 6.390813 -5.597400 0.000000 -64.992101
0.751274 17.142631 2.826098 -13.495812 -73.166640 24.713262 -10.714139 0.198528 2.354845 -6.928373 -9.895228 -21.665146 -1.022856 0.738429 29.024361 2.029871 9.903219 -13.740000 -1.125499 0.000000 -33.941600 9.816346 -0.410424 -1.228271 2.907106 -2.468377 -27.230391 -0.825200 -3.317957 52.698424 -3.615561 -20.661666 5.930177 -5.392700 -0.000000 -64.197400
0.770358 17.146839 2.843967 -14.110617 -72.561286 25.137781 -10.756533 0.157246 2.404138 -6.547958 -10.280442 -21.494427 -0.982051 0.743938 29.028747 2.025173 9.890941 -13.768894 -1.130100 -0.000000 -33.768601 9.804977 -0.362387 -1.326873 3.290332 -2.591645 -28.398047 -0.894505 -3.461839 54.817255 -3.598532 -20.567880 5.452168 -5.173800 -0.000000 -63.699400
0.790337 17.151675 2.861094 -14.726385 -71.947694 25.551085 -10.800372 0.116087 2.459254 -6.148328 -10.698706 -21.305213 -0.937996 0.749674 29.021075 2.024918 9.907712 -13.793936 -1.136300 -0.000000 -33.574300 9.790393 -0.313831 -1.436019 3.694525 -2.760978 -29.562476 -0.963275 -3.602773 56.841838 -3.573736 -20.431211 4.988222 -4.952300 0.000000 -63.493500
0.810875 17.157177 2.877062 -15.301588 -71.334434 25.918878 -10.841595 0.076528 2.520385 -5.748672 -11.150232 -21.097106 -0.892184 0.754368 28.990188 2.029341 9.955236 -13.807830 -1.142600 -0.000000 -33.361000 9.775948 -0.262412 -1.551979 4.097599 -2.972950 -30.736250 -1.032147 -3.741589 58.776924 -3.539602 -20.239117 4.551420 -4.729599 -0.000000 -63.535000
0.832246 17.163372 2.892441 -15.888122 -70.724919 26.288679 -10.884687 0.037540 2.583370 -5.334071 -11.606707 -20.876497 -0.844873 0.758571 28.940480 2.034893 10.012708 -13.811803 -1.147700 0.000000 -33.146199 9.757740 -0.210220 -1.671302 4.514797 -3.208872 -31.918515 -1.100460 -3.877300 60.615052 -3.496529 -19.994532 4.154518 -4.512201 -0.000000 -63.765300
0.854174 17.170233 2.907291 -16.480684 -70.126281 26.661767 -10.929287 -0.000198 2.646601 -4.909519 -12.053914 -20.648728 -0.796950 0.761771 28.869777 2.040221 10.072071 -13.802423 -1.150400 -0.000000 -32.948500 9.736198 -0.156765 -1.790119 4.939833 -3.459072 -33.119566 -1.168178 -4.010274 62.361828 -3.444011 -19.691565 3.794209 -4.298100 0.000000 -64.107700
0.876544 17.177637 2.921160 -17.046586 -69.544506 27.011664 -10.971613 -0.035977 2.710580 -4.491435 -12.491111 -20.420682 -0.749693 0.762899 28.774272 2.045416 10.132781 -13.777062 -1.150000 -0.000000 -32.755100 9.714357 -0.099263 -1.904755 5.353759 -3.720542 -34.359234 -1.235901 -4.142138 64.032867 -3.381582 -19.323575 3.460178 -4.083300 0.000000 -64.516500
0.899448 17.185500 2.934616 -17.627050 -68.984512 27.379164 -11.016079 -0.070541 2.771010 -4.066717 -12.889069 -20.200863 -0.703123 0.762666 28.662603 2.047490 10.177082 -13.737828 -1.145400 0.000000 -32.592300 9.688823 -0.039345 -2.012393 5.770217 -3.976232 -35.640019 -1.303256 -4.272621 65.632111 -3.309867 -18.893663 3.139920 -3.865800 -0.000000 -64.913700
